<?xml version="1.0" encoding="UTF-8" standalone="no"?>
<svg
   xmlns:dc="http://purl.org/dc/elements/1.1/"
   xmlns:cc="http://creativecommons.org/ns#"
   xmlns:rdf="http://www.w3.org/1999/02/22-rdf-syntax-ns#"
   xmlns:svg="http://www.w3.org/2000/svg"
   xmlns="http://www.w3.org/2000/svg"
   xmlns:sodipodi="http://sodipodi.sourceforge.net/DTD/sodipodi-0.dtd"
   xmlns:inkscape="http://www.inkscape.org/namespaces/inkscape"
   inkscape:export-ydpi="24.000002"
   inkscape:export-xdpi="24.000002"
   inkscape:export-filename="D:\Downloads\icon_16.png"
   sodipodi:docname="08_useJsonFetch.svg"
   inkscape:version="1.0.2 (e86c870879, 2021-01-15, custom)"
   id="svg8"
   version="1.1"
   viewBox="0 0 16.933333 16.933334"
   height="64"
   width="64">
  <defs
     id="defs2">
    <rect
       x="-29.314735"
       y="0.16413988"
       width="28.59743"
       height="17.360918"
       id="rect921" />
    <rect
       x="-22.279261"
       y="1.4801278"
       width="17.259688"
       height="17.006613"
       id="rect915" />
    <rect
       x="-24.386055"
       y="-3.0126345"
       width="19.562287"
       height="16.898467"
       id="rect943" />
    <rect
       x="-20.681329"
       y="-3.9082826"
       width="48.853533"
       height="19.419279"
       id="rect910" />
    <rect
       id="rect848"
       height="16.906861"
       width="16.906861"
       y="0.01323625"
       x="0.01323625" />
    <filter
       style="color-interpolation-filters:sRGB;"
       inkscape:label="Drop Shadow"
       id="filter1122">
      <feFlood
         flood-opacity="1"
         flood-color="rgb(0,0,0)"
         result="flood"
         id="feFlood1112" />
      <feComposite
         in="flood"
         in2="SourceGraphic"
         operator="in"
         result="composite1"
         id="feComposite1114" />
      <feGaussianBlur
         in="composite1"
         stdDeviation="0.2"
         result="blur"
         id="feGaussianBlur1116" />
      <feOffset
         dx="0"
         dy="0"
         result="offset"
         id="feOffset1118" />
      <feComposite
         in="SourceGraphic"
         in2="offset"
         operator="over"
         result="fbSourceGraphic"
         id="feComposite1120" />
      <feColorMatrix
         result="fbSourceGraphicAlpha"
         in="fbSourceGraphic"
         values="0 0 0 -1 0 0 0 0 -1 0 0 0 0 -1 0 0 0 0 1 0"
         id="feColorMatrix1304" />
      <feFlood
         id="feFlood1306"
         flood-opacity="0.6"
         flood-color="rgb(0,0,0)"
         result="flood"
         in="fbSourceGraphic" />
      <feComposite
         in2="fbSourceGraphic"
         id="feComposite1308"
         in="flood"
         operator="in"
         result="composite1" />
      <feGaussianBlur
         id="feGaussianBlur1310"
         in="composite1"
         stdDeviation="0.2"
         result="blur" />
      <feOffset
         id="feOffset1312"
         dx="0"
         dy="0"
         result="offset" />
      <feComposite
         in2="offset"
         id="feComposite1314"
         in="fbSourceGraphic"
         operator="over"
         result="composite2" />
    </filter>
    <filter
       style="color-interpolation-filters:sRGB;"
       inkscape:label="Drop Shadow"
       id="filter1122-7">
      <feFlood
         flood-opacity="1"
         flood-color="rgb(0,0,0)"
         result="flood"
         id="feFlood1112-3" />
      <feComposite
         in="flood"
         in2="SourceGraphic"
         operator="in"
         result="composite1"
         id="feComposite1114-9" />
      <feGaussianBlur
         in="composite1"
         stdDeviation="0.2"
         result="blur"
         id="feGaussianBlur1116-3" />
      <feOffset
         dx="0"
         dy="0"
         result="offset"
         id="feOffset1118-1" />
      <feComposite
         in="SourceGraphic"
         in2="offset"
         operator="over"
         result="fbSourceGraphic"
         id="feComposite1120-1" />
      <feColorMatrix
         result="fbSourceGraphicAlpha"
         in="fbSourceGraphic"
         values="0 0 0 -1 0 0 0 0 -1 0 0 0 0 -1 0 0 0 0 1 0"
         id="feColorMatrix1316" />
      <feFlood
         id="feFlood1318"
         flood-opacity="0.6"
         flood-color="rgb(0,0,0)"
         result="flood"
         in="fbSourceGraphic" />
      <feComposite
         in2="fbSourceGraphic"
         id="feComposite1320"
         in="flood"
         operator="in"
         result="composite1" />
      <feGaussianBlur
         id="feGaussianBlur1322"
         in="composite1"
         stdDeviation="0.2"
         result="blur" />
      <feOffset
         id="feOffset1324"
         dx="0"
         dy="0"
         result="offset" />
      <feComposite
         in2="offset"
         id="feComposite1326"
         in="fbSourceGraphic"
         operator="over"
         result="composite2" />
    </filter>
    <filter
       style="color-interpolation-filters:sRGB;"
       inkscape:label="Drop Shadow"
       id="filter1122-8">
      <feFlood
         flood-opacity="1"
         flood-color="rgb(0,0,0)"
         result="flood"
         id="feFlood1112-8" />
      <feComposite
         in="flood"
         in2="SourceGraphic"
         operator="in"
         result="composite1"
         id="feComposite1114-5" />
      <feGaussianBlur
         in="composite1"
         stdDeviation="0.2"
         result="blur"
         id="feGaussianBlur1116-8" />
      <feOffset
         dx="0"
         dy="0"
         result="offset"
         id="feOffset1118-8" />
      <feComposite
         in="SourceGraphic"
         in2="offset"
         operator="over"
         result="fbSourceGraphic"
         id="feComposite1120-4" />
      <feColorMatrix
         result="fbSourceGraphicAlpha"
         in="fbSourceGraphic"
         values="0 0 0 -1 0 0 0 0 -1 0 0 0 0 -1 0 0 0 0 1 0"
         id="feColorMatrix1340" />
      <feFlood
         id="feFlood1342"
         flood-opacity="0.6"
         flood-color="rgb(0,0,0)"
         result="flood"
         in="fbSourceGraphic" />
      <feComposite
         in2="fbSourceGraphic"
         id="feComposite1344"
         in="flood"
         operator="in"
         result="composite1" />
      <feGaussianBlur
         id="feGaussianBlur1346"
         in="composite1"
         stdDeviation="0.2"
         result="blur" />
      <feOffset
         id="feOffset1348"
         dx="0"
         dy="0"
         result="offset" />
      <feComposite
         in2="offset"
         id="feComposite1350"
         in="fbSourceGraphic"
         operator="over"
         result="composite2" />
    </filter>
    <filter
       style="color-interpolation-filters:sRGB"
       inkscape:label="Drop Shadow"
       id="filter1122-2">
      <feFlood
         flood-opacity="1"
         flood-color="rgb(0,0,0)"
         result="flood"
         id="feFlood1112-7" />
      <feComposite
         in="flood"
         in2="SourceGraphic"
         operator="in"
         result="composite1"
         id="feComposite1114-7" />
      <feGaussianBlur
         in="composite1"
         stdDeviation="0.2"
         result="blur"
         id="feGaussianBlur1116-5" />
      <feOffset
         dx="0"
         dy="0"
         result="offset"
         id="feOffset1118-3" />
      <feComposite
         in="SourceGraphic"
         in2="offset"
         operator="over"
         result="composite2"
         id="feComposite1120-6" />
    </filter>
    <filter
       style="color-interpolation-filters:sRGB;"
       inkscape:label="Drop Shadow"
       id="filter1122-9">
      <feFlood
         flood-opacity="1"
         flood-color="rgb(0,0,0)"
         result="flood"
         id="feFlood1112-1" />
      <feComposite
         in="flood"
         in2="SourceGraphic"
         operator="in"
         result="composite1"
         id="feComposite1114-3" />
      <feGaussianBlur
         in="composite1"
         stdDeviation="0.2"
         result="blur"
         id="feGaussianBlur1116-7" />
      <feOffset
         dx="0"
         dy="0"
         result="offset"
         id="feOffset1118-5" />
      <feComposite
         in="SourceGraphic"
         in2="offset"
         operator="over"
         result="fbSourceGraphic"
         id="feComposite1120-68" />
      <feColorMatrix
         result="fbSourceGraphicAlpha"
         in="fbSourceGraphic"
         values="0 0 0 -1 0 0 0 0 -1 0 0 0 0 -1 0 0 0 0 1 0"
         id="feColorMatrix1328" />
      <feFlood
         id="feFlood1330"
         flood-opacity="0.6"
         flood-color="rgb(0,0,0)"
         result="flood"
         in="fbSourceGraphic" />
      <feComposite
         in2="fbSourceGraphic"
         id="feComposite1332"
         in="flood"
         operator="in"
         result="composite1" />
      <feGaussianBlur
         id="feGaussianBlur1334"
         in="composite1"
         stdDeviation="0.2"
         result="blur" />
      <feOffset
         id="feOffset1336"
         dx="0"
         dy="0"
         result="offset" />
      <feComposite
         in2="offset"
         id="feComposite1338"
         in="fbSourceGraphic"
         operator="over"
         result="composite2" />
    </filter>
    <filter
       style="color-interpolation-filters:sRGB;"
       inkscape:label="Drop Shadow"
       id="filter1122-5">
      <feFlood
         flood-opacity="1"
         flood-color="rgb(0,0,0)"
         result="flood"
         id="feFlood1112-6" />
      <feComposite
         in="flood"
         in2="SourceGraphic"
         operator="in"
         result="composite1"
         id="feComposite1114-0" />
      <feGaussianBlur
         in="composite1"
         stdDeviation="0.2"
         result="blur"
         id="feGaussianBlur1116-9" />
      <feOffset
         dx="0"
         dy="0"
         result="offset"
         id="feOffset1118-2" />
      <feComposite
         in="SourceGraphic"
         in2="offset"
         operator="over"
         result="fbSourceGraphic"
         id="feComposite1120-8" />
      <feColorMatrix
         result="fbSourceGraphicAlpha"
         in="fbSourceGraphic"
         values="0 0 0 -1 0 0 0 0 -1 0 0 0 0 -1 0 0 0 0 1 0"
         id="feColorMatrix1352" />
      <feFlood
         id="feFlood1354"
         flood-opacity="0.6"
         flood-color="rgb(0,0,0)"
         result="flood"
         in="fbSourceGraphic" />
      <feComposite
         in2="fbSourceGraphic"
         id="feComposite1356"
         in="flood"
         operator="in"
         result="composite1" />
      <feGaussianBlur
         id="feGaussianBlur1358"
         in="composite1"
         stdDeviation="0.2"
         result="blur" />
      <feOffset
         id="feOffset1360"
         dx="0"
         dy="0"
         result="offset" />
      <feComposite
         in2="offset"
         id="feComposite1362"
         in="fbSourceGraphic"
         operator="over"
         result="composite2" />
    </filter>
  </defs>
  <sodipodi:namedview
     inkscape:snap-global="false"
     inkscape:window-maximized="1"
     inkscape:window-y="-8"
     inkscape:window-x="-8"
     inkscape:window-height="1017"
     inkscape:window-width="1920"
     units="px"
     showgrid="false"
     inkscape:document-rotation="0"
     inkscape:current-layer="layer1"
     inkscape:document-units="mm"
     inkscape:cy="29.43704"
     inkscape:cx="3.0934212"
     inkscape:zoom="4.3105756"
     inkscape:pageshadow="2"
     inkscape:pageopacity="0.0"
     borderopacity="1.0"
     bordercolor="#666666"
     pagecolor="#ffffff"
     id="base" />
  <metadata
     id="metadata5">
    <rdf:RDF>
      <cc:Work
         rdf:about="">
        <dc:format>image/svg+xml</dc:format>
        <dc:type
           rdf:resource="http://purl.org/dc/dcmitype/StillImage" />
        <dc:title />
      </cc:Work>
    </rdf:RDF>
  </metadata>
  <g
     id="layer1"
     inkscape:groupmode="layer"
     inkscape:label="Layer 1">
    <rect
       style="fill:#2f2f96;fill-opacity:1;stroke:none;stroke-width:0.420686;stroke-linecap:round;stroke-linejoin:round;stroke-miterlimit:4;stroke-dasharray:none;stroke-opacity:1"
       id="rect989"
       width="16.933332"
       height="16.933332"
       x="0"
       y="0"
       ry="1.7718468" />
    <path
       id="path942"
       style="font-style:normal;font-variant:normal;font-weight:normal;font-stretch:normal;font-size:8.72718px;line-height:1.25;font-family:ArtScript;-inkscape-font-specification:ArtScript;letter-spacing:0px;word-spacing:0px;white-space:pre;fill:#ffba2a;fill-opacity:1;stroke:none;stroke-width:0.996085"
       d="M 7.653796,3.2378163 C 7.5519243,3.3623263 7.4471339,3.4530398 7.3396033,3.5096344 7.1783072,3.6058462 6.9814985,3.6538117 6.7494584,3.6538117 L 6.2528479,3.6284903 5.739701,3.5602773 5.1578243,3.462609 4.6994543,3.4372873 C 4.2806504,3.4457767 3.9086653,3.5096402 3.5832434,3.6284903 3.2549915,3.7586589 2.959127,3.9497333 2.6959592,4.2015817 2.2545174,4.6430239 2.033984,5.1153695 2.033984,5.6190663 c 0,0.2320401 0.062043,0.4173802 0.1865519,0.5560385 0.1386577,0.1414878 0.3213893,0.2123901 0.5477702,0.2123901 0.4555908,0 0.8090688,-0.1488432 1.0609172,-0.4459677 0.220721,-0.2546781 0.3312459,-0.5786974 0.3312459,-0.9720336 0,-0.2801461 -0.052395,-0.5121474 -0.1570963,-0.6960815 l -0.017053,0.068213 c 0,0.1895938 -0.026853,0.3929242 -0.080615,0.6108155 C 3.8434497,5.1759913 3.7712428,5.3785341 3.6891802,5.5596385 3.4429909,6.040697 3.1361743,6.2810413 2.7683061,6.2810413 2.5589038,6.2725522 2.4048435,6.2149394 2.305802,6.1074085 2.2067606,5.9913885 2.1569739,5.8284684 2.1569739,5.6190663 2.1682928,5.1521564 2.3721398,4.7123948 2.7683061,4.2992503 3.2521943,3.8238509 3.8306352,3.5861154 4.5041175,3.5861154 l 0.3482991,0.03359 0.3395141,0.1064533 0.4542358,0.2165244 0.4072105,0.1653646 c 0.1188495,0.033957 0.2575287,0.050643 0.4159951,0.050643 C 6.8287511,4.150201 7.1105392,4.040193 7.3142819,3.8279612 7.4642591,3.6525163 7.5773923,3.4557076 7.653796,3.2378163 Z m 7.462077,0.7808309 -0.645439,0.064079 -0.861446,1.7017048 -0.488342,0.6454386 -0.929143,1.2634888 -0.0088,0.00568 C 11.899743,8.1291657 11.651055,8.412258 11.435994,8.5480866 11.206783,8.6895744 10.98,8.7599599 10.756449,8.7599599 10.555537,8.7514705 10.455175,8.6357282 10.455175,8.4121775 c 0,-0.1131903 0.01851,-0.2205897 0.05529,-0.3224609 l 0.08888,-0.2547649 0.08527,-0.1912028 c 0.198082,-0.4046553 0.401928,-0.7031286 0.611332,-0.8955526 0.169786,-0.1612961 0.313682,-0.2418456 0.432531,-0.2418456 0.08772,0 0.148975,0.016685 0.182935,0.050643 -0.192424,0.00849 -0.288871,0.093468 -0.288871,0.2547649 0.01697,0.076403 0.04383,0.1371417 0.08061,0.1824177 0.05093,0.039617 0.109063,0.059428 0.17415,0.059428 0.101871,0 0.174077,-0.025028 0.216524,-0.075964 0.04811,-0.053765 0.07183,-0.1207548 0.07183,-0.199988 0,-0.1216789 -0.04354,-0.2118759 -0.131258,-0.2713011 -0.07923,-0.062255 -0.217912,-0.093534 -0.415995,-0.093534 -0.265998,0.00849 -0.530582,0.074962 -0.79375,0.1994709 -0.325421,0.1641261 -0.566283,0.3750117 -0.72192,0.6325196 -0.08772,0.1273392 -0.1523735,0.2576753 -0.1948201,0.3906739 -0.00333,0.012224 -0.00474,0.024004 -0.00775,0.036174 l -0.022221,0.027388 -0.33538,0.4754232 C 9.2482749,8.5508237 9.0246163,8.7387726 8.8718093,8.7387726 8.7699379,8.7302831 8.7193638,8.6669363 8.7193638,8.5480866 L 8.7488196,8.373937 8.8253006,8.182734 10.026778,5.8397246 h 0.627868 l 0.09354,-0.046509 -0.0088,-0.025321 -0.0677,-0.025838 H 10.069152 L 10.556978,4.7958608 9.9244584,4.8465036 9.4195796,5.8185373 8.5581336,6.9435334 8.0144974,7.6990426 8.0072627,7.7202299 C 7.8104251,8.0346457 7.6344769,8.2657926 7.4796465,8.4121775 7.2306278,8.6498771 6.9819398,8.7687448 6.7329219,8.7687448 6.6084101,8.7602557 6.5203054,8.7219374 6.4693721,8.6540231 6.4156034,8.5493222 6.388757,8.4476571 6.388757,8.3486153 L 6.4311316,8.0385568 6.5546383,7.6990426 6.8941524,7.6737212 7.2589879,7.5419463 C 7.4627306,7.4485642 7.6339941,7.3182284 7.7726519,7.1512726 7.8660329,7.040912 7.9325049,6.9361214 7.9721228,6.8370799 c 0.019809,-0.056595 0.029972,-0.1032566 0.029972,-0.1400432 0,-0.1895938 -0.1488427,-0.2842204 -0.4459676,-0.2842204 -0.4952072,0 -0.9208913,0.1558816 -1.2774414,0.4671549 -0.3622085,0.3084436 -0.543636,0.6645302 -0.543636,1.0691855 0,0.268827 0.079245,0.4815337 0.2377115,0.6371704 0.1867641,0.186764 0.4456152,0.2800863 0.7766968,0.2800863 C 7.07488,8.857924 7.3848227,8.6796223 7.6791174,8.3315622 L 7.8449987,8.1233062 8.0868446,7.7837921 8.0925289,7.764155 9.1648147,6.3068798 8.3286901,7.9326202 c -0.073573,0.149977 -0.1105876,0.2886562 -0.1105876,0.4159951 0.00849,0.1726153 0.055151,0.2998259 0.1400432,0.381889 0.099042,0.090552 0.2377199,0.1359091 0.4159953,0.1359091 0.1895936,0 0.3991748,-0.1232977 0.6283855,-0.3694867 0.1178329,-0.1253543 0.2757966,-0.3390693 0.4625041,-0.6154663 -0.00369,0.039771 -0.00827,0.079699 -0.00827,0.1188559 0.00849,0.2575078 0.090344,0.4639638 0.2459794,0.6196004 0.169785,0.1528069 0.38771,0.2294432 0.653707,0.2294432 0.342401,0 0.644,-0.1144378 0.904337,-0.3436482 0.166957,-0.1273389 0.363765,-0.3708088 0.590145,-0.7301878 l 0.0052,-0.013436 0.555005,-0.7591269 0.517798,-0.6960814 -1.260905,2.4871865 h 0.67076 l 0.12299,-0.2630329 c 0.104701,-0.2292104 0.339828,-0.5787753 0.704866,-1.0485149 0.481059,-0.6225466 0.84913,-0.9337932 1.103809,-0.9337932 0.09904,0.00849 0.148311,0.046807 0.148311,0.1147218 -0.0085,0.090552 -0.0455,0.1838743 -0.110587,0.2800863 L 14.39447,7.4101713 c -0.291465,0.3848471 -0.437183,0.6947893 -0.437183,0.9296591 0.0085,0.1697855 0.05776,0.3001216 0.148311,0.3906739 0.09904,0.1018712 0.240329,0.1529623 0.424264,0.1529623 0.220721,0 0.469925,-0.16735 0.747241,-0.5012613 L 15.75666,7.733149 15.7825,7.664936 15.76545,7.63548 15.73134,7.618427 15.67605,7.652533 c -0.132999,0.2178913 -0.288363,0.4352989 -0.466638,0.6531901 -0.280145,0.2971244 -0.476954,0.4459676 -0.590145,0.4459676 -0.09338,-0.028298 -0.140043,-0.069224 -0.140043,-0.1229899 0.0085,-0.1075307 0.06662,-0.2532483 0.17415,-0.4371827 l 0.207739,-0.33538 c 0.149977,-0.2235507 0.249033,-0.3979394 0.297139,-0.5224486 0.04527,-0.1075309 0.06821,-0.2290072 0.06821,-0.3648356 -0.0085,-0.1754452 -0.05828,-0.3026558 -0.148828,-0.381889 -0.09621,-0.099042 -0.223423,-0.1488281 -0.381889,-0.1488281 -0.22638,0 -0.478193,0.138679 -0.755509,0.4159954 -0.24053,0.2405292 -0.475657,0.5337857 -0.704867,0.8790159 z M 5.9391719,4.1251008 C 5.5543252,4.2920563 5.2681071,4.4940823 5.081343,4.7317819 4.8351541,5.0289066 4.5679598,5.5369616 4.2793248,6.2557199 4.0048384,6.3094854 3.7587603,6.3900349 3.5408688,6.4975658 3.2861909,6.6390535 3.0695707,6.7905053 2.8912961,6.9518016 3.1148468,6.7905053 3.3085302,6.674763 3.4726558,6.604019 3.7018664,6.4964884 3.9568041,6.4242815 4.2369502,6.3874949 3.9313361,7.1034235 3.6495485,7.636507 3.3920407,7.9873972 2.995875,8.4769451 2.599649,8.7217194 2.2034827,8.7217194 c -0.3282519,0 -0.5571281,-0.086284 -0.6872965,-0.258899 C 1.6944608,8.4543312 1.83314,8.3993272 1.9321814,8.2974558 2.0425417,8.178606 2.097546,8.0571294 2.097546,7.9326202 2.0890567,7.805281 2.0397868,7.7030992 1.9492347,7.6266958 1.8473637,7.5418029 1.7438773,7.4995717 1.6391761,7.4995717 L 1.439705,7.533678 C 1.388768,7.553487 1.3389809,7.587375 1.2908769,7.6354807 1.1974949,7.7288627 1.1508338,7.8631118 1.1508338,8.0385568 c 0.00849,0.2263806 0.1075453,0.417455 0.2971395,0.5730917 0.2065721,0.1584663 0.4755876,0.2377114 0.8066691,0.2377114 L 2.6623694,8.8193877 3.0824988,8.7387726 3.4473343,8.6287017 3.7573929,8.4969267 C 4.1450694,8.2988438 4.4703931,7.9607473 4.7335607,7.4825185 4.9316436,7.1174797 5.0729314,6.7199494 5.1578243,6.2898263 L 5.3066524,6.2645049 5.472017,6.2303985 5.4084551,6.5487253 c -0.011322,0.036787 -0.017053,0.1301091 -0.017053,0.2800864 l 0.54777,-0.1483114 C 5.9108766,6.5956076 5.8962806,6.4908168 5.8962806,6.3663076 V 6.1074085 C 6.040596,6.0479839 6.13131,6.0013228 6.1680984,5.9673654 c 0.079233,-0.079233 0.1188559,-0.1712511 0.1188559,-0.275952 0,-0.076403 -0.016683,-0.140267 -0.050643,-0.191203 C 6.1768897,5.4464452 6.1302284,5.4195953 6.0962683,5.4195953 5.9264828,5.4280845 5.7846786,5.5086342 5.671488,5.6614409 5.5865969,5.8085884 5.5258589,5.9600401 5.4890702,6.1156768 L 5.349027,6.1580516 C 5.326389,6.1693706 5.271384,6.1751046 5.1836624,6.1751046 L 5.5908729,4.6470326 C 5.7153821,4.3810354 5.8316413,4.2071637 5.9391719,4.1251008 Z m 0.1400432,1.4092163 c 0.076403,0 0.114205,0.052395 0.114205,0.1570963 -0.028295,0.1160206 -0.060363,0.1851017 -0.097152,0.2077392 l -0.199471,0.093534 v -0.042375 l 0.00827,-0.1658813 0.034106,-0.1312582 c 0.042449,-0.079233 0.08911,-0.1188556 0.1400432,-0.1188556 z M 7.653796,6.514619 c 0.1612961,0 0.2418456,0.060738 0.2418456,0.1824177 -0.00849,0.1216795 -0.074962,0.2546244 -0.199471,0.3989419 -0.1301692,0.1556367 -0.2873547,0.2745047 -0.471289,0.3565676 -0.1188495,0.056595 -0.2262492,0.094914 -0.322461,0.1147215 l -0.190686,0.025838 H 6.6052811 C 6.7637477,7.2959814 6.9420494,7.043652 7.1401321,6.8370799 7.3438747,6.6220184 7.5151377,6.514619 7.653796,6.514619 Z" />
    <path
       id="path925"
       style="font-style:normal;font-variant:normal;font-weight:normal;font-stretch:normal;font-size:8.72718px;line-height:1.25;font-family:Academy;-inkscape-font-specification:Academy;letter-spacing:0px;word-spacing:0px;white-space:pre;fill:#ffffff;fill-opacity:1;stroke:none;stroke-width:0.479744"
       d="m 6.0886993,10.764133 c -0.267955,0 -0.477296,0.07688 -0.628022,0.230397 -0.147934,0.150725 -0.222016,0.325176 -0.222016,0.52335 0,0.209343 0.05449,0.371094 0.163344,0.485532 0.108857,0.111652 0.228821,0.196927 0.360008,0.255544 0.05582,0.02512 0.11031,0.04601 0.163343,0.06276 0.05303,0.01675 0.101921,0.03074 0.14658,0.04191 0.03908,0.01116 0.08216,0.02516 0.1296108,0.04191 0.050239,0.01396 0.1006311,0.03205 0.1508732,0.05439 0.1116473,0.04745 0.213519,0.115727 0.3056284,0.205047 0.092111,0.08932 0.1381978,0.209488 0.1381978,0.360214 v 0.01655 0.01677 c -0.00838,0.136771 -0.062862,0.261036 -0.1633432,0.372684 -0.097693,0.111652 -0.2260544,0.167432 -0.3851537,0.167432 h -0.016766 -0.016766 c -0.1981713,-0.0084 -0.3851173,-0.08506 -0.5609633,-0.230203 -0.173055,-0.145144 -0.291722,-0.32649 -0.35592,-0.544205 h -0.142491 v 0.904213 h 0.138198 c 0.01396,-0.03349 0.03505,-0.05719 0.06297,-0.07114 0.02791,-0.01675 0.05721,-0.02794 0.08791,-0.03352 h 0.01247 0.01677 c 0.01954,0 0.03914,0.0015 0.05867,0.0042 0.01954,0.0028 0.03893,0.0069 0.05847,0.01247 0.01674,0.0028 0.03504,0.0084 0.05458,0.01677 0.01954,0.0056 0.03893,0.01116 0.05847,0.01677 0.111649,0.03628 0.212222,0.05868 0.301541,0.06706 0.08932,0.01116 0.159099,0.01677 0.2093411,0.01677 0.2512088,0 0.4562481,-0.08657 0.6153474,-0.259633 0.1591,-0.173054 0.2471779,-0.362799 0.263924,-0.569348 v -0.02944 -0.02924 c 0,-0.212131 -0.055784,-0.378183 -0.1674314,-0.498205 -0.1088568,-0.12002 -0.2303233,-0.212199 -0.3643015,-0.276396 -0.06699,-0.0307 -0.1326725,-0.05589 -0.1968702,-0.07544 -0.064196,-0.02234 -0.1212782,-0.04043 -0.1715212,-0.05439 -0.036282,-0.01116 -0.076773,-0.02236 -0.1214332,-0.03352 -0.04187,-0.01396 -0.08516,-0.02925 -0.129816,-0.046 -0.106065,-0.03906 -0.202337,-0.09635 -0.288865,-0.171714 -0.08653,-0.07536 -0.129816,-0.180033 -0.129816,-0.314011 0,-0.125604 0.04458,-0.235873 0.133904,-0.330775 0.09211,-0.0949 0.223273,-0.142285 0.393537,-0.142285 0.03629,0 0.09487,0.0084 0.1758125,0.02515 0.080946,0.01675 0.1662253,0.06563 0.2555433,0.146578 0.050239,0.04745 0.1004263,0.108839 0.1506684,0.184197 0.050239,0.07537 0.09633,0.168835 0.1381978,0.280483 H 6.9342514 V 10.90228 H 6.8295808 l -0.00405,0.0042 -0.00428,0.0041 c -0.0028,0.0028 -0.00538,0.007 -0.00817,0.01267 -0.0028,0.0028 -0.00708,0.0056 -0.012674,0.0084 -0.00838,0.0084 -0.018072,0.01527 -0.029234,0.02086 -0.011157,0.0056 -0.025164,0.0084 -0.041908,0.0084 -0.016751,0 -0.033546,-0.0028 -0.050291,-0.0084 -0.016744,-0.0056 -0.032043,-0.01248 -0.046,-0.02086 -0.0056,-0.0028 -0.011181,-0.0056 -0.016767,-0.0084 -0.0028,-0.0028 -0.00685,-0.0056 -0.012468,-0.0084 -0.072573,-0.04186 -0.1395543,-0.07396 -0.2009613,-0.09629 -0.061409,-0.02233 -0.1229926,-0.03782 -0.1843988,-0.0462 -0.019539,-0.0028 -0.040433,-0.0041 -0.062759,-0.0041 -0.02233,-0.0028 -0.04452,-0.0042 -0.06685,-0.0042 z m 2.7882788,0 c -0.4410111,0 -0.7996074,0.150757 -1.0759373,0.452208 -0.2735384,0.298659 -0.4102991,0.64756 -0.4102991,1.046704 0,0.396351 0.1367607,0.745252 0.4102991,1.046703 0.2763299,0.298659 0.6349262,0.448119 1.0759373,0.448119 0.4410112,0 0.7983107,-0.14946 1.0718493,-0.448119 0.2763296,-0.301451 0.4145926,-0.650352 0.4145926,-1.046703 0,-0.399144 -0.138263,-0.748045 -0.4145926,-1.046704 C 9.6752888,10.91489 9.3179893,10.764133 8.8769781,10.764133 Z m -4.9906488,0.03353 v 0.142491 c 0.07536,0.0056 0.129848,0.02777 0.163343,0.06686 0.03628,0.03907 0.05998,0.08107 0.07114,0.125727 0.0084,0.02792 0.01247,0.0544 0.01247,0.07953 0.0028,0.02512 0.0043,0.04731 0.0043,0.06686 v 2.210753 c 0,0.03628 -0.0015,0.07397 -0.0043,0.113046 0,0.0363 -0.0013,0.07397 -0.0041,0.113047 -0.01116,0.122814 -0.03766,0.235882 -0.07952,0.339157 -0.03908,0.106062 -0.108857,0.15905 -0.209341,0.15905 -0.0307,0 -0.0544,-0.0056 -0.07114,-0.01677 -0.01396,-0.0084 -0.02516,-0.01807 -0.03353,-0.02924 -0.0028,-0.0056 -0.0056,-0.01116 -0.0084,-0.01676 v -0.01678 -0.01267 c 0,-0.0028 0.0013,-0.0056 0.004,-0.0084 v -0.0041 -0.0042 -0.01677 c 0.0028,-0.0056 0.0043,-0.01528 0.0043,-0.02924 0,-0.05024 -0.0168,-0.08793 -0.05029,-0.113059 -0.0335,-0.02233 -0.06968,-0.03483 -0.10876,-0.03762 h -0.0084 -0.0043 c -0.05303,0 -0.09482,0.02089 -0.125523,0.06276 -0.0307,0.04187 -0.0462,0.08796 -0.0462,0.138196 0,0.01396 0.0015,0.02646 0.0043,0.03762 0.0028,0.01396 0.0069,0.02795 0.01247,0.04191 0.01954,0.04745 0.05723,0.09073 0.113053,0.129815 0.05583,0.04187 0.132706,0.06276 0.230398,0.06276 0.03908,0 0.08086,-0.0056 0.125522,-0.01677 0.04466,-0.0084 0.08925,-0.02367 0.133905,-0.046 0.120022,-0.05583 0.230292,-0.161996 0.330774,-0.318304 0.100493,-0.153516 0.152179,-0.376649 0.154962,-0.669727 v -2.051698 -0.06276 c 0.0028,-0.02511 0.0084,-0.05161 0.01677,-0.07953 0.01116,-0.04466 0.03356,-0.08644 0.06706,-0.125522 0.0335,-0.03907 0.08778,-0.06277 0.163139,-0.07115 V 10.7977 Z m 6.8579517,0 v 0.142491 c 0.08932,0.0028 0.1535,0.03898 0.192577,0.108754 0.03908,0.06978 0.05867,0.150757 0.05867,0.242868 v 1.988736 c 0,0.07816 -0.0196,0.149232 -0.05867,0.213429 -0.03629,0.06141 -0.09077,0.0922 -0.163343,0.0922 h -0.0082 -0.0043 -0.0084 -0.0084 v 0.142286 h 0.661544 v -0.142286 c -0.0642,0 -0.11438,-0.01809 -0.150667,-0.05438 -0.03349,-0.0363 -0.05869,-0.07548 -0.07544,-0.117339 -0.0084,-0.02512 -0.01398,-0.04882 -0.01677,-0.07114 -0.0028,-0.02513 -0.004,-0.04602 -0.004,-0.06276 v -2.080937 h 0.01677 l 1.992825,2.528852 h 0.125816 v -2.457698 c 0,-0.08374 0.0125,-0.153516 0.03762,-0.209341 0.02792,-0.05582 0.09769,-0.0961 0.209341,-0.121232 v -0.142511 h -0.657465 v 0.142491 c 0.08374,0.01116 0.142524,0.03765 0.176018,0.07953 0.03349,0.04187 0.0544,0.08645 0.06276,0.133903 0.0028,0.01954 0.004,0.04043 0.004,0.06276 0.0028,0.01954 0.0042,0.03763 0.0042,0.05438 v 1.775308 h -0.01267 l -1.77506,-2.248359 z m -1.9092114,0.129812 h 0.041908 0.037616 c 0.013957,0 0.027951,0.0015 0.041908,0.0042 0.245626,0.01954 0.471763,0.136704 0.6783123,0.351627 0.2065502,0.214923 0.3099226,0.541429 0.3099226,0.979649 0,0.438219 -0.1033719,0.764929 -0.3099226,0.979854 -0.2065493,0.214923 -0.4326863,0.332088 -0.6783123,0.351626 -0.013957,0.0028 -0.027958,0.004 -0.041908,0.004 h -0.037616 -0.041908 c -0.011157,0 -0.023659,-0.0013 -0.037616,-0.004 C 8.551827,13.574891 8.3256899,13.457727 8.1191406,13.242805 7.9125913,13.02788 7.8094225,12.70117 7.8094225,12.262951 c 0,-0.43822 0.1031693,-0.764726 0.3097181,-0.979649 0.2065493,-0.214923 0.4326864,-0.332088 0.678313,-0.351627 0.013957,-0.0028 0.026453,-0.0042 0.037616,-0.0042 z" />
  </g>
</svg>
