<svg width="64" height="64" version="1.1" viewBox="0 0 16.9 16.9" xmlns="http://www.w3.org/2000/svg">
 <g>
  <rect width="16.9" height="16.9" ry="1.77" fill="#2f2f96"/>
  <path d="m7.65 3.24c-.102.125-.207.215-.314.272-.161.0962-.358.144-.59.144l-.497-.0253-.513-.0682-.582-.0977-.458-.0253c-.419.00849-.791.0724-1.12.191-.328.13-.624.321-.887.573-.441.441-.662.914-.662 1.42 0 .232.062.417.187.556.139.141.321.212.548.212.456 0 .809-.149 1.06-.446.221-.255.331-.579.331-.972 0-.28-.0524-.512-.157-.696l-.0171.0682c0 .19-.0269.393-.0806.611-.0623.224-.134.426-.217.607-.246.481-.553.721-.921.721-.209-.00849-.363-.0661-.463-.174-.099-.116-.149-.279-.149-.488.0113-.467.215-.907.611-1.32.484-.475 1.06-.713 1.74-.713l.348.0336.34.106.454.217.407.165c.119.034.258.0506.416.0506.359-.00849.641-.118.845-.331.15-.175.263-.372.34-.59zm7.46.781-.645.0641-.861 1.7-.488.645-.929 1.26-.0088.00568c-.283.43-.532.713-.747.849-.229.141-.456.212-.68.212-.201-.00849-.301-.124-.301-.348 0-.113.0185-.221.0553-.322l.0889-.255.0853-.191c.198-.405.402-.703.611-.896.17-.161.314-.242.433-.242.0877 0 .149.0167.183.0506-.192.00849-.289.0935-.289.255.017.0764.0438.137.0806.182.0509.0396.109.0594.174.0594.102 0 .174-.025.217-.076.0481-.0538.0718-.121.0718-.2 0-.122-.0435-.212-.131-.271-.0792-.0623-.218-.0935-.416-.0935-.266.00849-.531.075-.794.199-.325.164-.566.375-.722.633-.0877.127-.152.258-.195.391-.00333.0122-.00474.024-.00775.0362l-.0222.0274-.335.475c-.294.376-.518.564-.671.564-.102-.00849-.152-.0718-.152-.191l.0295-.174.0765-.191 1.2-2.34h.628l.0935-.0465-.0088-.0253-.0677-.0258h-.603l.488-.946-.633.0506-.505.972-.861 1.12-.544.756-.00723.0212c-.197.314-.373.546-.528.692-.249.238-.498.357-.747.357-.125-.00849-.213-.0468-.264-.115-.0538-.105-.0806-.206-.0806-.305l.0424-.31.124-.34.34-.0253.365-.132c.204-.0934.375-.224.514-.391.0934-.11.16-.215.199-.314.0198-.0566.03-.103.03-.14 0-.19-.149-.284-.446-.284-.495 0-.921.156-1.28.467-.362.308-.544.665-.544 1.07 0 .269.0792.482.238.637.187.187.446.28.777.28.325-.00849.635-.187.93-.535l.166-.208.242-.34.00568-.0196 1.07-1.46-.836 1.63c-.0736.15-.111.289-.111.416.00849.173.0552.3.14.382.099.0906.238.136.416.136.19 0 .399-.123.628-.369.118-.125.276-.339.463-.615-.00369.0398-.00827.0797-.00827.119.00849.258.0903.464.246.62.17.153.388.229.654.229.342 0 .644-.114.904-.344.167-.127.364-.371.59-.73l.0052-.0134.555-.759.518-.696-1.26 2.49h.671l.123-.263c.105-.229.34-.579.705-1.05.481-.623.849-.934 1.1-.934.099.00849.148.0468.148.115-.0085.0906-.0455.184-.111.28l-.314.467c-.291.385-.437.695-.437.93.0085.17.0578.3.148.391.099.102.24.153.424.153.221 0 .47-.167.747-.501l.48-.649.0258-.0682-.017-.0295-.0341-.0171-.0553.0341c-.133.218-.288.435-.467.653-.28.297-.477.446-.59.446-.0934-.0283-.14-.0692-.14-.123.0085-.108.0666-.253.174-.437l.208-.335c.15-.224.249-.398.297-.522.0453-.108.0682-.229.0682-.365-.0085-.175-.0583-.303-.149-.382-.0962-.099-.223-.149-.382-.149-.226 0-.478.139-.756.416-.241.241-.476.534-.705.879zm-9.18.106c-.385.167-.671.369-.858.607-.246.297-.513.805-.802 1.52-.274.0538-.521.134-.738.242-.255.141-.471.293-.65.454.224-.161.417-.277.581-.348.229-.108.484-.18.764-.217-.306.716-.587 1.25-.845 1.6-.396.49-.792.734-1.19.734-.328 0-.557-.0863-.687-.259.178-.00849.317-.0635.416-.165.11-.119.165-.24.165-.365-.00849-.127-.0578-.23-.148-.306-.102-.0849-.205-.127-.31-.127l-.199.0341c-.0509.0198-.101.0537-.149.102-.0934.0934-.14.228-.14.403.00849.226.108.417.297.573.207.158.476.238.807.238l.408-.03.42-.0806.365-.11.31-.132c.388-.198.713-.536.976-1.01.198-.365.339-.763.424-1.19l.149-.0253.165-.0341-.0636.318c-.0113.0368-.0171.13-.0171.28l.548-.148c-.0283-.0849-.0429-.19-.0429-.314v-.259c.144-.0594.235-.106.272-.14.0792-.0792.119-.171.119-.276 0-.0764-.0167-.14-.0506-.191-.0594-.0538-.106-.0806-.14-.0806-.17.00849-.312.089-.425.242-.0849.147-.146.299-.182.454l-.14.0424c-.0226.0113-.0776.0171-.165.0171l.407-1.53c.125-.266.241-.44.348-.522zm.14 1.41c.0764 0 .114.0524.114.157-.0283.116-.0604.185-.0972.208l-.199.0935v-.0424l.00827-.166.0341-.131c.0424-.0792.0891-.119.14-.119zm1.57.98c.161 0 .242.0607.242.182-.00849.122-.075.255-.199.399-.13.156-.287.275-.471.357-.119.0566-.226.0949-.322.115l-.191.0258h-.106c.158-.297.337-.549.535-.756.204-.215.375-.322.514-.322z" fill="#ffba2a" style="white-space:pre"/>
  <path d="m6.09 10.8c-.268 0-.477.0769-.628.23-.148.151-.222.325-.222.523 0 .209.0545.371.163.486.109.112.229.197.36.256.0558.0251.11.046.163.0628.053.0168.102.0307.147.0419.0391.0112.0822.0252.13.0419.0502.014.101.032.151.0544.112.0474.214.116.306.205.0921.0893.138.209.138.36v.0333c-.00838.137-.0629.261-.163.373-.0977.112-.226.167-.385.167h-.0335c-.198-.0084-.385-.0851-.561-.23-.173-.145-.292-.326-.356-.544h-.142v.904h.138c.014-.0335.035-.0572.063-.0711.0279-.0168.0572-.0279.0879-.0335h.0292c.0195 0 .0391.0015.0587.0042.0195.0028.0389.0069.0585.0125.0167.0028.035.0084.0546.0168.0195.0056.0389.0112.0585.0168.112.0363.212.0587.302.0671.0893.0112.159.0168.209.0168.251 0 .456-.0866.615-.26.159-.173.247-.363.264-.569v-.0587c0-.212-.0558-.378-.167-.498-.109-.12-.23-.212-.364-.276-.067-.0307-.133-.0559-.197-.0754-.0642-.0223-.121-.0404-.172-.0544-.0363-.0112-.0768-.0224-.121-.0335-.0419-.014-.0852-.0292-.13-.046-.106-.0391-.202-.0964-.289-.172-.0865-.0754-.13-.18-.13-.314 0-.126.0446-.236.134-.331.0921-.0949.223-.142.394-.142.0363 0 .0949.0084.176.0252.0809.0168.166.0656.256.147.0502.0474.1.109.151.184.0502.0754.0963.169.138.28h.163v-.662h-.105l-.00405.0042-.00428.0041c-.0028.0028-.00538.007-.00817.0127-.0028.0028-.00708.0056-.0127.0084-.00838.0084-.0181.0153-.0292.0209-.0112.0056-.0252.0084-.0419.0084-.0168 0-.0335-.0028-.0503-.0084-.0167-.0056-.032-.0125-.046-.0209-.0056-.0028-.0112-.0056-.0168-.0084-.0028-.0028-.00685-.0056-.0125-.0084-.0726-.0419-.14-.074-.201-.0963-.0614-.0223-.123-.0378-.184-.0462-.0195-.0028-.0404-.0041-.0628-.0041-.0223-.0028-.0445-.0042-.0668-.0042zm2.79 0c-.441 0-.8.151-1.08.452-.274.299-.41.648-.41 1.05 0 .396.137.745.41 1.05.276.299.635.448 1.08.448.441 0 .798-.149 1.07-.448.276-.301.415-.65.415-1.05 0-.399-.138-.748-.415-1.05-.274-.301-.631-.452-1.07-.452zm-4.99.0335v.142c.0754.0056.13.0278.163.0669.0363.0391.06.0811.0711.126.0084.0279.0125.0544.0125.0795.0028.0251.0043.0473.0043.0669v2.21c0 .0363-.0015.074-.0043.113 0 .0363-.0013.074-.0041.113-.0112.123-.0377.236-.0795.339-.0391.106-.109.159-.209.159-.0307 0-.0544-.0056-.0711-.0168-.014-.0084-.0252-.0181-.0335-.0292-.0028-.0056-.0056-.0112-.0084-.0168v-.0294c0-.0028.0013-.0056.004-.0084v-.0251c.0028-.0056.0043-.0153.0043-.0292 0-.0502-.0168-.0879-.0503-.113-.0335-.0223-.0697-.0348-.109-.0376h-.0127c-.053 0-.0948.0209-.126.0628-.0307.0419-.0462.088-.0462.138 0 .014.0015.0265.0043.0376.0028.014.0069.028.0125.0419.0195.0474.0572.0907.113.13.0558.0419.133.0628.23.0628.0391 0 .0809-.0056.126-.0168.0447-.0084.0892-.0237.134-.046.12-.0558.23-.162.331-.318.1-.154.152-.377.155-.67v-2.11c.0028-.0251.0084-.0516.0168-.0795.0112-.0447.0336-.0864.0671-.126.0335-.0391.0878-.0628.163-.0712v-.142zm6.86 0v.142c.0893.0028.154.039.193.109.0391.0698.0587.151.0587.243v1.99c0 .0782-.0196.149-.0587.213-.0363.0614-.0908.0922-.163.0922h-.0293v.142h.662v-.142c-.0642 0-.114-.0181-.151-.0544-.0335-.0363-.0587-.0755-.0754-.117-.0084-.0251-.014-.0488-.0168-.0711-.0028-.0251-.004-.046-.004-.0628v-2.08h.0168l1.99 2.53h.126v-2.46c0-.0837.0125-.154.0376-.209.0279-.0558.0977-.0961.209-.121v-.143h-.657v.142c.0837.0112.143.0376.176.0795.0335.0419.0544.0864.0628.134.0028.0195.004.0404.004.0628.0028.0195.0042.0376.0042.0544v1.78h-.0127l-1.78-2.25zm-1.91.13h.0795c.014 0 .028.0015.0419.0042.246.0195.472.137.678.352.207.215.31.541.31.98 0 .438-.103.765-.31.98-.207.215-.433.332-.678.352-.014.0028-.028.004-.0419.004h-.0795c-.0112 0-.0237-.0013-.0376-.004-.246-.0195-.472-.137-.678-.352-.207-.215-.31-.542-.31-.98 0-.438.103-.765.31-.98.207-.215.433-.332.678-.352.014-.0028.0265-.0042.0376-.0042z" fill="#fff" style="white-space:pre"/>
 </g>
</svg>
