<svg width="64" height="64" version="1.1" viewBox="0 0 16.933 16.933" xmlns="http://www.w3.org/2000/svg">
<path d="m1.1058 3.8872-.27926 5.0235 4.4517-2.3432-1.2908-.82922c.96738-1.6039 2.7514-2.638 4.7622-2.5426 2.0502.097267 3.7557 1.3418 4.5476 3.0827l1.676-.86495c-1.0976-2.3174-3.4026-3.9766-6.1348-4.1062-1.3488-.063991-2.6283.25334-3.7364.85589-1.1042.60046-2.0341 1.4867-2.6952 2.5598zm.91832 7.6255c1.0957 2.3215 3.4002 3.9835 6.1355 4.1132 2.6779.12704 5.0835-1.2498 6.4132-3.3789l1.2537.80535.28019-5.0229-4.4517 2.3432 1.3336.85666c-.97247 1.583-2.7437 2.6035-4.7392 2.5088-2.0529-.097394-3.7594-1.3448-4.5499-3.0894z" color="#000000" color-rendering="auto" dominant-baseline="auto" fill="#168e28" image-rendering="auto" shape-rendering="auto" solid-color="#000000" stop-color="#000000" style="font-feature-settings:normal;font-variant-alternates:normal;font-variant-caps:normal;font-variant-east-asian:normal;font-variant-ligatures:normal;font-variant-numeric:normal;font-variant-position:normal;font-variation-settings:normal;inline-size:0;isolation:auto;mix-blend-mode:normal;shape-margin:0;shape-padding:0;text-decoration-color:#000000;text-decoration-line:none;text-decoration-style:solid;text-indent:0;text-orientation:mixed;text-transform:none;white-space:normal"/>
</svg>
